<?xml version="1.0" encoding="UTF-8"?>
<!DOCTYPE svg PUBLIC "-//W3C//DTD SVG 1.1//EN" "http://www.w3.org/Graphics/SVG/1.1/DTD/svg11.dtd">
<svg xmlns="http://www.w3.org/2000/svg" version="1.1" width="1920px" height="1080px" style="shape-rendering:geometricPrecision; text-rendering:geometricPrecision; image-rendering:optimizeQuality; fill-rule:evenodd; clip-rule:evenodd" xmlns:xlink="http://www.w3.org/1999/xlink">
<g><path style="opacity:1" fill="#5c4e4e" d="M -0.5,-0.5 C 310.5,-0.5 621.5,-0.5 932.5,-0.5C 828.895,10.297 753.395,61.9636 706,154.5C 692.01,184.977 683.844,216.977 681.5,250.5C 680.502,283.996 680.168,317.663 680.5,351.5C 662.326,351.17 644.326,351.503 626.5,352.5C 597.635,354.851 577.135,369.184 565,395.5C 563.057,400.331 561.723,405.331 561,410.5C 560.333,608.5 560.333,806.5 561,1004.5C 566.418,1036.58 584.918,1056.42 616.5,1064C 840.833,1064.67 1065.17,1064.67 1289.5,1064C 1322.21,1057.29 1341.38,1037.45 1347,1004.5C 1347.99,804.809 1347.66,605.142 1346,405.5C 1338.13,376.807 1319.63,359.307 1290.5,353C 1269.17,352.5 1247.84,352.333 1226.5,352.5C 1226.67,317.498 1226.5,282.498 1226,247.5C 1214.5,144.572 1162.66,70.0721 1070.5,24C 1040.05,10.6827 1008.38,2.51603 975.5,-0.5C 1290.17,-0.5 1604.83,-0.5 1919.5,-0.5C 1919.5,359.5 1919.5,719.5 1919.5,1079.5C 1279.5,1079.5 639.5,1079.5 -0.5,1079.5C -0.5,719.5 -0.5,359.5 -0.5,-0.5 Z"/></g>
<g><path style="opacity:1" fill="#974f7f" d="M 932.5,-0.5 C 946.833,-0.5 961.167,-0.5 975.5,-0.5C 1008.38,2.51603 1040.05,10.6827 1070.5,24C 1162.66,70.0721 1214.5,144.572 1226,247.5C 1226.5,282.498 1226.67,317.498 1226.5,352.5C 1247.84,352.333 1269.17,352.5 1290.5,353C 1319.63,359.307 1338.13,376.807 1346,405.5C 1347.66,605.142 1347.99,804.809 1347,1004.5C 1341.38,1037.45 1322.21,1057.29 1289.5,1064C 1065.17,1064.67 840.833,1064.67 616.5,1064C 584.918,1056.42 566.418,1036.58 561,1004.5C 560.333,806.5 560.333,608.5 561,410.5C 561.723,405.331 563.057,400.331 565,395.5C 577.135,369.184 597.635,354.851 626.5,352.5C 644.833,352.5 663.167,352.5 681.5,352.5C 681.5,318.5 681.5,284.5 681.5,250.5C 683.844,216.977 692.01,184.977 706,154.5C 753.395,61.9636 828.895,10.297 932.5,-0.5 Z"/></g>
<g><path style="opacity:1" fill="#cea28b" d="M 1204.5,252.5 C 1204.5,285.5 1204.5,318.5 1204.5,351.5C 1180.17,351.5 1155.83,351.5 1131.5,351.5C 1131.83,323.328 1131.5,295.328 1130.5,267.5C 1127.68,198.235 1096.01,147.069 1035.5,114C 1001.15,98.378 965.154,92.7113 927.5,97C 868.748,106.78 824.914,137.613 796,189.5C 784.834,211.498 778.667,234.831 777.5,259.5C 776.502,289.995 776.169,320.662 776.5,351.5C 752.167,351.5 727.833,351.5 703.5,351.5C 703.5,318.833 703.5,286.167 703.5,253.5C 712.024,158.574 758.357,89.0744 842.5,45C 898.837,19.9659 957.17,14.2992 1017.5,28C 1107.41,53.5798 1166.91,110.746 1196,199.5C 1201.21,216.788 1204.05,234.454 1204.5,252.5 Z"/></g>
<g><path style="opacity:1" fill="#5c4e4e" d="M 1108.5,258.5 C 1108.5,289.5 1108.5,320.5 1108.5,351.5C 1005.5,351.5 902.5,351.5 799.5,351.5C 799.5,320.167 799.5,288.833 799.5,257.5C 805.824,196.709 836.824,153.542 892.5,128C 918.951,117.923 946.284,114.59 974.5,118C 1045.6,129.767 1089.76,170.6 1107,240.5C 1108.24,246.435 1108.74,252.435 1108.5,258.5 Z"/></g>
<g><path style="opacity:1" fill="#684e57" d="M 681.5,250.5 C 681.5,284.5 681.5,318.5 681.5,352.5C 663.167,352.5 644.833,352.5 626.5,352.5C 644.326,351.503 662.326,351.17 680.5,351.5C 680.168,317.663 680.502,283.996 681.5,250.5 Z"/></g>
<g><path style="opacity:1" fill="#c49289" d="M 703.5,253.5 C 703.5,286.167 703.5,318.833 703.5,351.5C 727.833,351.5 752.167,351.5 776.5,351.5C 776.169,320.662 776.502,289.995 777.5,259.5C 777.5,290.5 777.5,321.5 777.5,352.5C 752.5,352.5 727.5,352.5 702.5,352.5C 702.168,319.329 702.502,286.329 703.5,253.5 Z"/></g>
<g><path style="opacity:1" fill="#644e54" d="M 799.5,257.5 C 799.5,288.833 799.5,320.167 799.5,351.5C 902.5,351.5 1005.5,351.5 1108.5,351.5C 1108.5,320.5 1108.5,289.5 1108.5,258.5C 1109.5,289.662 1109.83,320.996 1109.5,352.5C 1005.83,352.5 902.167,352.5 798.5,352.5C 798.168,320.662 798.502,288.996 799.5,257.5 Z"/></g>
<g><path style="opacity:1" fill="#c49489" d="M 1204.5,252.5 C 1205.5,285.662 1205.83,318.996 1205.5,352.5C 1180.5,352.5 1155.5,352.5 1130.5,352.5C 1130.5,324.167 1130.5,295.833 1130.5,267.5C 1131.5,295.328 1131.83,323.328 1131.5,351.5C 1155.83,351.5 1180.17,351.5 1204.5,351.5C 1204.5,318.5 1204.5,285.5 1204.5,252.5 Z"/></g>
<g><path style="opacity:1" fill="#ba8487" d="M 1284.5,374.5 C 1110.83,374.333 937.166,374.5 763.5,375C 752.167,393.502 742.833,413.002 735.5,433.5C 728.247,433.71 722.414,436.71 718,442.5C 717.5,432.839 717.334,423.172 717.5,413.5C 710.833,413.5 704.167,413.5 697.5,413.5C 697.5,441.5 697.5,469.5 697.5,497.5C 703.5,497.5 709.5,497.5 715.5,497.5C 695.26,578.641 688.093,660.974 694,744.5C 697.217,792.703 708.884,838.703 729,882.5C 745.492,911.659 768.992,933.159 799.5,947C 838.556,962.878 879.223,971.212 921.5,972C 976.516,972.735 1031.52,972.069 1086.5,970C 1125.06,968.587 1163.06,963.254 1200.5,954C 1247.93,941.793 1289.26,918.96 1324.5,885.5C 1325.5,728.835 1325.83,572.168 1325.5,415.5C 1326.67,610.333 1326.83,805.333 1326,1000.5C 1322.53,1024.3 1309.03,1038.47 1285.5,1043C 1064.17,1043.67 842.833,1043.67 621.5,1043C 604.272,1039.44 592.106,1029.61 585,1013.5C 583.617,1008.92 582.617,1004.25 582,999.5C 581.333,804.167 581.333,608.833 582,413.5C 587.306,391.86 600.806,378.694 622.5,374C 843.334,373.167 1064,373.334 1284.5,374.5 Z"/></g>
<g><path style="opacity:1" fill="#c08d88" d="M 1284.5,374.5 C 1304.05,377.205 1317.21,387.872 1324,406.5C 1324.95,409.432 1325.45,412.432 1325.5,415.5C 1325.83,572.168 1325.5,728.835 1324.5,885.5C 1289.26,918.96 1247.93,941.793 1200.5,954C 1163.06,963.254 1125.06,968.587 1086.5,970C 1031.52,972.069 976.516,972.735 921.5,972C 879.223,971.212 838.556,962.878 799.5,947C 768.992,933.159 745.492,911.659 729,882.5C 708.884,838.703 697.217,792.703 694,744.5C 688.093,660.974 695.26,578.641 715.5,497.5C 717.414,494.316 718.08,490.649 717.5,486.5C 721.147,474.599 724.814,462.599 728.5,450.5C 734.347,449.84 738.513,452.173 741,457.5C 741.5,470.829 741.667,484.163 741.5,497.5C 747.833,497.5 754.167,497.5 760.5,497.5C 760.955,481.096 760.455,464.763 759,448.5C 754.439,438.449 746.606,433.449 735.5,433.5C 742.833,413.002 752.167,393.502 763.5,375C 937.166,374.5 1110.83,374.333 1284.5,374.5 Z"/></g>
<g><path style="opacity:1" fill="#323c69" d="M 735.5,433.5 C 746.606,433.449 754.439,438.449 759,448.5C 760.455,464.763 760.955,481.096 760.5,497.5C 754.167,497.5 747.833,497.5 741.5,497.5C 741.667,484.163 741.5,470.829 741,457.5C 738.513,452.173 734.347,449.84 728.5,450.5C 723.556,450.602 720.056,452.935 718,457.5C 717.5,467.161 717.334,476.828 717.5,486.5C 718.08,490.649 717.414,494.316 715.5,497.5C 709.5,497.5 703.5,497.5 697.5,497.5C 697.5,469.5 697.5,441.5 697.5,413.5C 704.167,413.5 710.833,413.5 717.5,413.5C 717.334,423.172 717.5,432.839 718,442.5C 722.414,436.71 728.247,433.71 735.5,433.5 Z"/></g>
<g><path style="opacity:1" fill="#323c69" d="M 683.5,435.5 C 683.5,437.167 683.5,438.833 683.5,440.5C 676.833,440.5 670.167,440.5 663.5,440.5C 660.334,431.895 654.834,430.228 647,435.5C 645.348,440.846 646.848,445.013 651.5,448C 658.833,450.333 666.167,452.667 673.5,455C 683.38,460.262 687.213,468.428 685,479.5C 681.147,490.013 673.647,496.179 662.5,498C 649.217,500.061 638.05,496.228 629,486.5C 626.91,482.401 625.744,478.067 625.5,473.5C 632.532,473.17 639.532,473.503 646.5,474.5C 648.347,481.927 653.014,484.427 660.5,482C 661.931,481.535 663.097,480.701 664,479.5C 665.023,475.683 664.523,472.183 662.5,469C 652.302,465.611 642.302,461.611 632.5,457C 621.838,443.29 623.505,431.29 637.5,421C 650.319,414.831 662.985,415.165 675.5,422C 679.86,425.561 682.526,430.061 683.5,435.5 Z"/></g>
<g><path style="opacity:1" fill="#756378" d="M 984.5,418.5 C 978.167,418.5 971.833,418.5 965.5,418.5C 965.5,444.833 965.5,471.167 965.5,497.5C 964.502,471.005 964.169,444.339 964.5,417.5C 971.354,417.176 978.021,417.509 984.5,418.5 Z"/></g>
<g><path style="opacity:1" fill="#2f3b69" d="M 984.5,418.5 C 984.5,444.833 984.5,471.167 984.5,497.5C 978.167,497.5 971.833,497.5 965.5,497.5C 965.5,471.167 965.5,444.833 965.5,418.5C 971.833,418.5 978.167,418.5 984.5,418.5 Z"/></g>
<g><path style="opacity:1" fill="#524f70" d="M 1062.5,418.5 C 1056.17,418.5 1049.83,418.5 1043.5,418.5C 1043.5,444.833 1043.5,471.167 1043.5,497.5C 1042.5,471.005 1042.17,444.339 1042.5,417.5C 1049.35,417.176 1056.02,417.509 1062.5,418.5 Z"/></g>
<g><path style="opacity:1" fill="#303b69" d="M 1043.5,497.5 C 1043.5,471.167 1043.5,444.833 1043.5,418.5C 1049.83,418.5 1056.17,418.5 1062.5,418.5C 1073.17,434.681 1083.67,451.015 1094,467.5C 1094.5,450.837 1094.67,434.17 1094.5,417.5C 1100.83,417.5 1107.17,417.5 1113.5,417.5C 1113.5,444.167 1113.5,470.833 1113.5,497.5C 1107.16,497.666 1100.82,497.5 1094.5,497C 1083.88,480.919 1073.38,464.752 1063,448.5C 1062.5,464.83 1062.33,481.163 1062.5,497.5C 1056.17,497.5 1049.83,497.5 1043.5,497.5 Z"/></g>
<g><path style="opacity:1" fill="#7c667a" d="M 1019.5,419.5 C 1013.17,419.5 1006.83,419.5 1000.5,419.5C 1000.5,424.5 1000.5,429.5 1000.5,434.5C 998.5,434.5 996.5,434.5 994.5,434.5C 995.919,433.549 997.585,433.216 999.5,433.5C 999.5,428.5 999.5,423.5 999.5,418.5C 1006.35,418.176 1013.02,418.509 1019.5,419.5 Z"/></g>
<g><path style="opacity:1" fill="#303b69" d="M 1019.5,419.5 C 1019.5,424.5 1019.5,429.5 1019.5,434.5C 1023.83,434.5 1028.17,434.5 1032.5,434.5C 1032.5,439.833 1032.5,445.167 1032.5,450.5C 1028.17,450.5 1023.83,450.5 1019.5,450.5C 1019.33,459.839 1019.5,469.173 1020,478.5C 1020.71,479.381 1021.54,480.047 1022.5,480.5C 1025.29,481.477 1028.29,481.81 1031.5,481.5C 1031.5,486.833 1031.5,492.167 1031.5,497.5C 1025.82,497.666 1020.16,497.499 1014.5,497C 1007.3,495.131 1002.8,490.631 1001,483.5C 1000.5,472.505 1000.33,461.505 1000.5,450.5C 998.5,450.5 996.5,450.5 994.5,450.5C 994.5,445.167 994.5,439.833 994.5,434.5C 996.5,434.5 998.5,434.5 1000.5,434.5C 1000.5,429.5 1000.5,424.5 1000.5,419.5C 1006.83,419.5 1013.17,419.5 1019.5,419.5 Z"/></g>
<g><path style="opacity:1" fill="#303b69" d="M 792.5,433.5 C 802.51,431.888 810.677,434.888 817,442.5C 817.497,439.854 817.664,437.187 817.5,434.5C 823.833,434.5 830.167,434.5 836.5,434.5C 836.5,455.5 836.5,476.5 836.5,497.5C 830.167,497.5 823.833,497.5 817.5,497.5C 817.665,494.482 817.498,491.482 817,488.5C 807.498,499.584 796.332,501.417 783.5,494C 770.325,482.805 766.491,468.972 772,452.5C 776.047,443.076 782.881,436.743 792.5,433.5 Z"/></g>
<g><path style="opacity:1" fill="#333d69" d="M 883.5,433.5 C 885.167,433.5 886.833,433.5 888.5,433.5C 888.5,440.167 888.5,446.833 888.5,453.5C 880.843,451.691 875.01,454.024 871,460.5C 870.5,472.829 870.333,485.162 870.5,497.5C 863.833,497.5 857.167,497.5 850.5,497.5C 850.5,476.5 850.5,455.5 850.5,434.5C 857.167,434.5 863.833,434.5 870.5,434.5C 870.335,437.85 870.502,441.183 871,444.5C 874.124,439.536 878.291,435.87 883.5,433.5 Z"/></g>
<g><path style="opacity:1" fill="#323c69" d="M 931.5,477.5 C 938.687,477.175 945.687,477.509 952.5,478.5C 946.857,491.757 936.69,498.423 922,498.5C 901.999,496.663 891.832,485.663 891.5,465.5C 893.611,441.754 906.611,431.254 930.5,434C 949.404,439.813 957.404,452.479 954.5,472C 940.155,472.167 925.822,472.667 911.5,473.5C 914.318,481.046 919.652,483.546 927.5,481C 929.324,480.34 930.657,479.173 931.5,477.5 Z"/></g>
<g><path style="opacity:1" fill="#313c69" d="M 1149.5,433.5 C 1177.35,432.517 1190.52,445.851 1189,473.5C 1183.83,489.687 1172.66,498.021 1155.5,498.5C 1139.18,497.431 1128.68,489.097 1124,473.5C 1121.19,452.752 1129.69,439.419 1149.5,433.5 Z"/></g>
<g><path style="opacity:1" fill="#313c69" d="M 1191.5,434.5 C 1197.87,434.17 1204.2,434.504 1210.5,435.5C 1213.64,448.908 1216.97,462.242 1220.5,475.5C 1223.97,461.934 1226.97,448.267 1229.5,434.5C 1236.83,434.5 1244.17,434.5 1251.5,434.5C 1253.86,448.315 1256.86,461.982 1260.5,475.5C 1264.25,461.986 1267.25,448.319 1269.5,434.5C 1275.84,434.334 1282.18,434.5 1288.5,435C 1282.14,455.079 1275.97,475.246 1270,495.5C 1263.11,497.441 1255.95,498.108 1248.5,497.5C 1246.3,485.349 1243.46,473.349 1240,461.5C 1236.63,473.391 1233.8,485.391 1231.5,497.5C 1224.17,497.5 1216.83,497.5 1209.5,497.5C 1203.79,476.414 1197.79,455.414 1191.5,434.5 Z"/></g>
<g><path style="opacity:1" fill="#6b5b76" d="M 683.5,435.5 C 684.461,437.265 684.795,439.265 684.5,441.5C 677.313,441.825 670.313,441.491 663.5,440.5C 670.167,440.5 676.833,440.5 683.5,440.5C 683.5,438.833 683.5,437.167 683.5,435.5 Z"/></g>
<g><path style="opacity:1" fill="#b88387" d="M 728.5,450.5 C 724.814,462.599 721.147,474.599 717.5,486.5C 717.334,476.828 717.5,467.161 718,457.5C 720.056,452.935 723.556,450.602 728.5,450.5 Z"/></g>
<g><path style="opacity:1" fill="#be8c88" d="M 798.5,450.5 C 812.474,449.974 818.641,456.64 817,470.5C 812.768,480.799 805.602,483.632 795.5,479C 788.957,472.402 787.791,464.902 792,456.5C 794.063,454.266 796.229,452.266 798.5,450.5 Z"/></g>
<g><path style="opacity:1" fill="#b88887" d="M 918.5,450.5 C 925.108,449.115 930.275,451.115 934,456.5C 934.49,457.793 934.657,459.127 934.5,460.5C 926.833,460.5 919.167,460.5 911.5,460.5C 912.276,456.06 914.61,452.727 918.5,450.5 Z"/></g>
<g><path style="opacity:1" fill="#be8c88" d="M 1151.5,450.5 C 1166.54,450.17 1172.37,457.503 1169,472.5C 1165.67,480.285 1159.84,483.118 1151.5,481C 1143.89,475.792 1141.39,468.626 1144,459.5C 1145.64,455.7 1148.14,452.7 1151.5,450.5 Z"/></g>
<g><path style="opacity:1" fill="#876d7c" d="M 931.5,477.5 C 938.677,476.181 946.01,476.181 953.5,477.5C 953.376,478.107 953.043,478.44 952.5,478.5C 945.687,477.509 938.687,477.175 931.5,477.5 Z"/></g>
<g><path style="opacity:1" fill="#5b5472" d="M 1022.5,480.5 C 1025.83,480.5 1029.17,480.5 1032.5,480.5C 1032.82,486.358 1032.49,492.025 1031.5,497.5C 1031.5,492.167 1031.5,486.833 1031.5,481.5C 1028.29,481.81 1025.29,481.477 1022.5,480.5 Z"/></g>
<g><path style="opacity:1" fill="#98507f" d="M 943.5,522.5 C 998.538,521.383 1033.04,547.383 1047,600.5C 1051.03,636.774 1039.53,666.94 1012.5,691C 1024.35,758.758 1035.68,826.592 1046.5,894.5C 984.833,894.5 923.167,894.5 861.5,894.5C 872.751,826.661 884.084,758.827 895.5,691C 862.187,660.469 852.687,623.636 867,580.5C 882.071,547.245 907.571,527.912 943.5,522.5 Z"/></g>
<g><path style="opacity:1" fill="#a56582" d="M 946.5,543.5 C 986.948,543.116 1013.11,562.116 1025,600.5C 1029.57,625.448 1023.57,647.448 1007,666.5C 1001.18,671.639 995.346,676.639 989.5,681.5C 1000.3,745.488 1010.96,809.488 1021.5,873.5C 976.5,873.5 931.5,873.5 886.5,873.5C 897.112,809.66 907.779,745.827 918.5,682C 918.167,681.167 917.833,680.333 917.5,679.5C 891.247,662.324 879.413,637.991 882,606.5C 889.255,570.743 910.755,549.743 946.5,543.5 Z"/></g>
</svg>
